<svg height="25" width="25" xmlns="http://www.w3.org/2000/svg" xmlns:xlink="http://www.w3.org/1999/xlink"><defs><path id="a" d="M0 0h25v25H0z"/><mask id="b" fill="#fff"><use fill-rule="evenodd" xlink:href="#a"/></mask></defs><g fill="none" fill-rule="evenodd"><use xlink:href="#a"/><g mask="url(#b)"><circle cx="12.5" cy="12.5" fill="#fc4119" r="12.5"/><g fill="#fff"><path d="M7.999 13.12H5.988v2.462c0 .291-.394.437-.788.437s-.788-.146-.788-.437v-5.78c0-.3.394-.427.788-.427s.788.127.788.427v2.227h2.01V9.802c0-.3.395-.427.789-.427s.788.127.788.427v5.78c0 .291-.394.437-.788.437s-.788-.146-.788-.437z"/><path d="M10.625 14.027v-2.409c0-1.563 1.08-2.145 2.475-2.145 1.394 0 2.486.582 2.486 2.145v2.409c0 1.563-1.092 2.145-2.486 2.145-1.394 0-2.475-.582-2.475-2.145zm3.384-2.409c0-.627-.343-.909-.909-.909s-.9.282-.9.91v2.408c0 .627.334.909.9.909s.91-.282.91-.91z" fill-rule="nonzero"/><path d="M20.764 9.375c.333 0 .475.327.475.627 0 .345-.172.645-.475.645H19.37v4.935c0 .291-.394.437-.788.437s-.789-.146-.789-.437v-4.935H16.4c-.303 0-.475-.3-.475-.645 0-.3.142-.627.475-.627z"/></g><path d="M24.415 23.107l-5.437-1.299 3.214-3.83z" fill="#fc4119"/></g></g></svg>